<svg xmlns="http://www.w3.org/2000/svg" xmlns:xlink="http://www.w3.org/1999/xlink" contentStyleType="text/css" data-diagram-type="CLASS" height="735px" preserveAspectRatio="none" style="width:744px;height:735px;background:#FFFFFF;" version="1.1" viewBox="0 0 744 735" width="744px" zoomAndPan="magnify"><defs/><g><!--class USER--><g class="entity" data-entity="USER" data-source-line="1" data-uid="ent0002" id="entity_USER"><rect fill="#F1F1F1" height="178.375" rx="2.5" ry="2.5" style="stroke:#181818;stroke-width:0.5;" width="204.1855" x="7" y="286.5"/><ellipse cx="85.9893" cy="302.5" fill="#ADD1B2" rx="11" ry="11" style="stroke:#181818;stroke-width:1;"/><path d="M90.0986,308.5 L82.3799,308.5 L82.3799,296.1094 L90.0986,296.1094 L90.0986,298.2656 L84.833,298.2656 L84.833,300.9375 L89.5986,300.9375 L89.5986,303.0938 L84.833,303.0938 L84.833,306.3438 L90.0986,306.3438 L90.0986,308.5 Z " fill="#000000"/><text fill="#000000" font-family="sans-serif" font-size="14" lengthAdjust="spacing" textLength="37.707" x="106.4893" y="307.3467">USER</text><line style="stroke:#181818;stroke-width:0.5;" x1="8" x2="210.1855" y1="318.5" y2="318.5"/><ellipse cx="18" cy="332.1484" fill="none" rx="3" ry="3" style="stroke:#038048;stroke-width:1;"/><text fill="#000000" font-family="sans-serif" font-size="14" lengthAdjust="spacing" textLength="101.001" x="27" y="335.4951">id : UUID &#171;PK&#187;</text><line style="stroke:#181818;stroke-width:1;" x1="8" x2="210.1855" y1="342.7969" y2="342.7969"/><text fill="#000000" font-family="sans-serif" font-size="14" lengthAdjust="spacing" textLength="181.084" x="13" y="359.792">username : VARCHAR(50)</text><text fill="#000000" font-family="sans-serif" font-size="14" lengthAdjust="spacing" textLength="158.3613" x="13" y="376.0889">email : VARCHAR(255)</text><text fill="#000000" font-family="sans-serif" font-size="14" lengthAdjust="spacing" textLength="156.4883" x="13" y="392.3857">password_hash : TEXT</text><text fill="#000000" font-family="sans-serif" font-size="14" lengthAdjust="spacing" textLength="82.0859" x="13" y="408.6826">role : ENUM</text><text fill="#000000" font-family="sans-serif" font-size="14" lengthAdjust="spacing" textLength="119.9434" x="13" y="424.9795">avatar_url : TEXT</text><text fill="#000000" font-family="sans-serif" font-size="14" lengthAdjust="spacing" textLength="187.6055" x="13" y="441.2764">created_at : TIMESTAMPTZ</text><text fill="#000000" font-family="sans-serif" font-size="14" lengthAdjust="spacing" textLength="192.1855" x="13" y="457.5732">updated_at : TIMESTAMPTZ</text></g><!--class USER_STAT--><g class="entity" data-entity="USER_STAT" data-source-line="14" data-uid="ent0003" id="entity_USER_STAT"><rect fill="#F1F1F1" height="113.1875" rx="2.5" ry="2.5" style="stroke:#181818;stroke-width:0.5;" width="190.6709" x="13.5" y="590.5"/><ellipse cx="64.4482" cy="606.5" fill="#ADD1B2" rx="11" ry="11" style="stroke:#181818;stroke-width:1;"/><path d="M68.5576,612.5 L60.8389,612.5 L60.8389,600.1094 L68.5576,600.1094 L68.5576,602.2656 L63.292,602.2656 L63.292,604.9375 L68.0576,604.9375 L68.0576,607.0938 L63.292,607.0938 L63.292,610.3438 L68.5576,610.3438 L68.5576,612.5 Z " fill="#000000"/><text fill="#000000" font-family="sans-serif" font-size="14" lengthAdjust="spacing" textLength="80.2744" x="84.9482" y="611.3467">USER_STAT</text><line style="stroke:#181818;stroke-width:0.5;" x1="14.5" x2="203.1709" y1="622.5" y2="622.5"/><ellipse cx="24.5" cy="636.1484" fill="none" rx="3" ry="3" style="stroke:#038048;stroke-width:1;"/><text fill="#000000" font-family="sans-serif" font-size="14" lengthAdjust="spacing" textLength="164.6709" x="33.5" y="639.4951">user_id : UUID &#171;PK, FK&#187;</text><line style="stroke:#181818;stroke-width:1;" x1="14.5" x2="203.1709" y1="646.7969" y2="646.7969"/><text fill="#000000" font-family="sans-serif" font-size="14" lengthAdjust="spacing" textLength="153.043" x="19.5" y="663.792">wins_count : INTEGER</text><text fill="#000000" font-family="sans-serif" font-size="14" lengthAdjust="spacing" textLength="164.4863" x="19.5" y="680.0889">losses_count : INTEGER</text><text fill="#000000" font-family="sans-serif" font-size="14" lengthAdjust="spacing" textLength="156.1602" x="19.5" y="696.3857">best_streak : INTEGER</text></g><!--class COMPETITION--><g class="entity" data-entity="COMPETITION" data-source-line="23" data-uid="ent0004" id="entity_COMPETITION"><rect fill="#F1F1F1" height="178.375" rx="2.5" ry="2.5" style="stroke:#181818;stroke-width:0.5;" width="204.1855" x="502" y="7"/><ellipse cx="551.335" cy="23" fill="#ADD1B2" rx="11" ry="11" style="stroke:#181818;stroke-width:1;"/><path d="M555.4443,29 L547.7256,29 L547.7256,16.6094 L555.4443,16.6094 L555.4443,18.7656 L550.1787,18.7656 L550.1787,21.4375 L554.9443,21.4375 L554.9443,23.5938 L550.1787,23.5938 L550.1787,26.8438 L555.4443,26.8438 L555.4443,29 Z " fill="#000000"/><text fill="#000000" font-family="sans-serif" font-size="14" lengthAdjust="spacing" textLength="97.0156" x="571.835" y="27.8467">COMPETITION</text><line style="stroke:#181818;stroke-width:0.5;" x1="503" x2="705.1855" y1="39" y2="39"/><ellipse cx="513" cy="52.6484" fill="none" rx="3" ry="3" style="stroke:#038048;stroke-width:1;"/><text fill="#000000" font-family="sans-serif" font-size="14" lengthAdjust="spacing" textLength="101.001" x="522" y="55.9951">id : UUID &#171;PK&#187;</text><line style="stroke:#181818;stroke-width:1;" x1="503" x2="705.1855" y1="63.2969" y2="63.2969"/><text fill="#000000" font-family="sans-serif" font-size="14" lengthAdjust="spacing" textLength="116.1699" x="508" y="80.292">api_id : INTEGER</text><text fill="#000000" font-family="sans-serif" font-size="14" lengthAdjust="spacing" textLength="88.8604" x="508" y="96.5889">name : TEXT</text><text fill="#000000" font-family="sans-serif" font-size="14" lengthAdjust="spacing" textLength="144.6074" x="508" y="112.8857">code : VARCHAR(10)</text><text fill="#000000" font-family="sans-serif" font-size="14" lengthAdjust="spacing" textLength="131.9541" x="508" y="129.1826">emblem_url : TEXT</text><text fill="#000000" font-family="sans-serif" font-size="14" lengthAdjust="spacing" textLength="102.6963" x="508" y="145.4795">country : TEXT</text><text fill="#000000" font-family="sans-serif" font-size="14" lengthAdjust="spacing" textLength="187.6055" x="508" y="161.7764">created_at : TIMESTAMPTZ</text><text fill="#000000" font-family="sans-serif" font-size="14" lengthAdjust="spacing" textLength="192.1855" x="508" y="178.0732">updated_at : TIMESTAMPTZ</text></g><!--class TEAM--><g class="entity" data-entity="TEAM" data-source-line="38" data-uid="ent0005" id="entity_TEAM"><rect fill="#F1F1F1" height="178.375" rx="2.5" ry="2.5" style="stroke:#181818;stroke-width:0.5;" width="204.1855" x="250" y="7"/><ellipse cx="328.3159" cy="23" fill="#ADD1B2" rx="11" ry="11" style="stroke:#181818;stroke-width:1;"/><path d="M332.4253,29 L324.7065,29 L324.7065,16.6094 L332.4253,16.6094 L332.4253,18.7656 L327.1597,18.7656 L327.1597,21.4375 L331.9253,21.4375 L331.9253,23.5938 L327.1597,23.5938 L327.1597,26.8438 L332.4253,26.8438 L332.4253,29 Z " fill="#000000"/><text fill="#000000" font-family="sans-serif" font-size="14" lengthAdjust="spacing" textLength="39.0537" x="348.8159" y="27.8467">TEAM</text><line style="stroke:#181818;stroke-width:0.5;" x1="251" x2="453.1855" y1="39" y2="39"/><ellipse cx="261" cy="52.6484" fill="none" rx="3" ry="3" style="stroke:#038048;stroke-width:1;"/><text fill="#000000" font-family="sans-serif" font-size="14" lengthAdjust="spacing" textLength="101.001" x="270" y="55.9951">id : UUID &#171;PK&#187;</text><line style="stroke:#181818;stroke-width:1;" x1="251" x2="453.1855" y1="63.2969" y2="63.2969"/><text fill="#000000" font-family="sans-serif" font-size="14" lengthAdjust="spacing" textLength="116.1699" x="256" y="80.292">api_id : INTEGER</text><text fill="#000000" font-family="sans-serif" font-size="14" lengthAdjust="spacing" textLength="88.8604" x="256" y="96.5889">name : TEXT</text><text fill="#000000" font-family="sans-serif" font-size="14" lengthAdjust="spacing" textLength="119.8955" x="256" y="112.8857">tla : VARCHAR(6)</text><text fill="#000000" font-family="sans-serif" font-size="14" lengthAdjust="spacing" textLength="109.5254" x="256" y="129.1826">crest_url : TEXT</text><text fill="#000000" font-family="sans-serif" font-size="14" lengthAdjust="spacing" textLength="102.6963" x="256" y="145.4795">country : TEXT</text><text fill="#000000" font-family="sans-serif" font-size="14" lengthAdjust="spacing" textLength="187.6055" x="256" y="161.7764">created_at : TIMESTAMPTZ</text><text fill="#000000" font-family="sans-serif" font-size="14" lengthAdjust="spacing" textLength="192.1855" x="256" y="178.0732">updated_at : TIMESTAMPTZ</text></g><!--class COMPETITION_TEAM--><g class="entity" data-entity="COMPETITION_TEAM" data-source-line="51" data-uid="ent0006" id="entity_COMPETITION_TEAM"><rect fill="#F1F1F1" height="113.1875" rx="2.5" ry="2.5" style="stroke:#181818;stroke-width:0.5;" width="243.7314" x="494" y="319"/><ellipse cx="540.0811" cy="335" fill="#ADD1B2" rx="11" ry="11" style="stroke:#181818;stroke-width:1;"/><path d="M544.1904,341 L536.4717,341 L536.4717,328.6094 L544.1904,328.6094 L544.1904,330.7656 L538.9248,330.7656 L538.9248,333.4375 L543.6904,333.4375 L543.6904,335.5938 L538.9248,335.5938 L538.9248,338.8438 L544.1904,338.8438 L544.1904,341 Z " fill="#000000"/><text fill="#000000" font-family="sans-serif" font-size="14" lengthAdjust="spacing" textLength="143.0693" x="560.5811" y="339.8467">COMPETITION_TEAM</text><line style="stroke:#181818;stroke-width:0.5;" x1="495" x2="736.7314" y1="351" y2="351"/><ellipse cx="505" cy="364.6484" fill="none" rx="3" ry="3" style="stroke:#038048;stroke-width:1;"/><text fill="#000000" font-family="sans-serif" font-size="14" lengthAdjust="spacing" textLength="217.7314" x="514" y="367.9951">competition_id : UUID &#171;PK, FK&#187;</text><ellipse cx="505" cy="380.9453" fill="none" rx="3" ry="3" style="stroke:#038048;stroke-width:1;"/><text fill="#000000" font-family="sans-serif" font-size="14" lengthAdjust="spacing" textLength="201.6055" x="514" y="384.292">team_id        : UUID &#171;PK, FK&#187;</text><line style="stroke:#181818;stroke-width:1;" x1="495" x2="736.7314" y1="391.5938" y2="391.5938"/><text fill="#000000" font-family="sans-serif" font-size="14" lengthAdjust="spacing" textLength="187.6055" x="500" y="408.5889">created_at : TIMESTAMPTZ</text><text fill="#000000" font-family="sans-serif" font-size="14" lengthAdjust="spacing" textLength="192.1855" x="500" y="424.8857">updated_at : TIMESTAMPTZ</text></g><!--class MATCH--><g class="entity" data-entity="MATCH" data-source-line="60" data-uid="ent0007" id="entity_MATCH"><rect fill="#F1F1F1" height="227.2656" rx="2.5" ry="2.5" style="stroke:#181818;stroke-width:0.5;" width="211.5205" x="246" y="262"/><ellipse cx="322.2549" cy="278" fill="#ADD1B2" rx="11" ry="11" style="stroke:#181818;stroke-width:1;"/><path d="M326.3643,284 L318.6455,284 L318.6455,271.6094 L326.3643,271.6094 L326.3643,273.7656 L321.0986,273.7656 L321.0986,276.4375 L325.8643,276.4375 L325.8643,278.5938 L321.0986,278.5938 L321.0986,281.8438 L326.3643,281.8438 L326.3643,284 Z " fill="#000000"/><text fill="#000000" font-family="sans-serif" font-size="14" lengthAdjust="spacing" textLength="50.5107" x="342.7549" y="282.8467">MATCH</text><line style="stroke:#181818;stroke-width:0.5;" x1="247" x2="456.5205" y1="294" y2="294"/><ellipse cx="257" cy="307.6484" fill="none" rx="3" ry="3" style="stroke:#038048;stroke-width:1;"/><text fill="#000000" font-family="sans-serif" font-size="14" lengthAdjust="spacing" textLength="101.001" x="266" y="310.9951">id : UUID &#171;PK&#187;</text><line style="stroke:#181818;stroke-width:1;" x1="247" x2="456.5205" y1="318.2969" y2="318.2969"/><text fill="#000000" font-family="sans-serif" font-size="14" lengthAdjust="spacing" textLength="116.1699" x="252" y="335.292">api_id : INTEGER</text><text fill="#000000" font-family="sans-serif" font-size="14" lengthAdjust="spacing" textLength="191.208" x="252" y="351.5889">competition_id : UUID &#171;FK&#187;</text><text fill="#000000" font-family="sans-serif" font-size="14" lengthAdjust="spacing" textLength="199.5205" x="252" y="367.8857">home_team_id   : UUID &#171;FK&#187;</text><text fill="#000000" font-family="sans-serif" font-size="14" lengthAdjust="spacing" textLength="196.7246" x="252" y="384.1826">away_team_id   : UUID &#171;FK&#187;</text><text fill="#000000" font-family="sans-serif" font-size="14" lengthAdjust="spacing" textLength="144.4707" x="252" y="400.4795">date : TIMESTAMPTZ</text><text fill="#000000" font-family="sans-serif" font-size="14" lengthAdjust="spacing" textLength="98.2803" x="252" y="416.7764">status : ENUM</text><text fill="#000000" font-family="sans-serif" font-size="14" lengthAdjust="spacing" textLength="159.6533" x="252" y="433.0732">home_score : INTEGER</text><text fill="#000000" font-family="sans-serif" font-size="14" lengthAdjust="spacing" textLength="156.8574" x="252" y="449.3701">away_score : INTEGER</text><text fill="#000000" font-family="sans-serif" font-size="14" lengthAdjust="spacing" textLength="187.6055" x="252" y="465.667">created_at : TIMESTAMPTZ</text><text fill="#000000" font-family="sans-serif" font-size="14" lengthAdjust="spacing" textLength="192.1855" x="252" y="481.9639">updated_at : TIMESTAMPTZ</text></g><!--class PREDICTION--><g class="entity" data-entity="PREDICTION" data-source-line="82" data-uid="ent0008" id="entity_PREDICTION"><rect fill="#F1F1F1" height="162.0781" rx="2.5" ry="2.5" style="stroke:#181818;stroke-width:0.5;" width="204.1855" x="245" y="566"/><ellipse cx="299.9063" cy="582" fill="#ADD1B2" rx="11" ry="11" style="stroke:#181818;stroke-width:1;"/><path d="M304.0156,588 L296.2969,588 L296.2969,575.6094 L304.0156,575.6094 L304.0156,577.7656 L298.75,577.7656 L298.75,580.4375 L303.5156,580.4375 L303.5156,582.5938 L298.75,582.5938 L298.75,585.8438 L304.0156,585.8438 L304.0156,588 Z " fill="#000000"/><text fill="#000000" font-family="sans-serif" font-size="14" lengthAdjust="spacing" textLength="85.873" x="320.4063" y="586.8467">PREDICTION</text><line style="stroke:#181818;stroke-width:0.5;" x1="246" x2="448.1855" y1="598" y2="598"/><ellipse cx="256" cy="611.6484" fill="none" rx="3" ry="3" style="stroke:#038048;stroke-width:1;"/><text fill="#000000" font-family="sans-serif" font-size="14" lengthAdjust="spacing" textLength="101.001" x="265" y="614.9951">id : UUID &#171;PK&#187;</text><line style="stroke:#181818;stroke-width:1;" x1="246" x2="448.1855" y1="622.2969" y2="622.2969"/><text fill="#000000" font-family="sans-serif" font-size="14" lengthAdjust="spacing" textLength="138.1475" x="251" y="639.292">user_id : UUID &#171;FK&#187;</text><text fill="#000000" font-family="sans-serif" font-size="14" lengthAdjust="spacing" textLength="151.8877" x="251" y="655.5889">match_id : UUID &#171;FK&#187;</text><text fill="#000000" font-family="sans-serif" font-size="14" lengthAdjust="spacing" textLength="171.0488" x="251" y="671.8857">prediction_value : ENUM</text><text fill="#000000" font-family="sans-serif" font-size="14" lengthAdjust="spacing" textLength="98.2803" x="251" y="688.1826">status : ENUM</text><text fill="#000000" font-family="sans-serif" font-size="14" lengthAdjust="spacing" textLength="187.6055" x="251" y="704.4795">created_at : TIMESTAMPTZ</text><text fill="#000000" font-family="sans-serif" font-size="14" lengthAdjust="spacing" textLength="192.1855" x="251" y="720.7764">updated_at : TIMESTAMPTZ</text></g><!--link USER to USER_STAT--><g class="link" data-entity-1="USER" data-entity-2="USER_STAT" data-source-line="99" data-uid="lnk9" id="link_USER_USER_STAT"><path codeLine="99" d="M109,472.74 C109,514.04 109,545.97 109,582.17" fill="none" id="USER-USER_STAT" style="stroke:#181818;stroke-width:1;"/><line style="stroke:#181818;stroke-width:1;" x1="105" x2="113" y1="468.74" y2="468.74"/><line style="stroke:#181818;stroke-width:1;" x1="105" x2="113" y1="471.74" y2="471.74"/><line style="stroke:#181818;stroke-width:1;" x1="109" x2="109" y1="472.74" y2="464.74"/><line style="stroke:#181818;stroke-width:1;" x1="113" x2="105" y1="586.17" y2="586.17"/><line style="stroke:#181818;stroke-width:1;" x1="113" x2="105" y1="583.17" y2="583.17"/><line style="stroke:#181818;stroke-width:1;" x1="109" x2="109" y1="582.17" y2="590.17"/><text fill="#000000" font-family="sans-serif" font-size="13" lengthAdjust="spacing" textLength="20.9219" x="110" y="532.0669">1:1</text></g><!--link USER to PREDICTION--><g class="link" data-entity-1="USER" data-entity-2="PREDICTION" data-source-line="100" data-uid="lnk10" id="link_USER_PREDICTION"><path codeLine="100" d="M192.225,470.7369 C220.965,503.2869 236.1334,520.4695 264.2234,552.2695" fill="none" id="USER-PREDICTION" style="stroke:#181818;stroke-width:1;"/><line style="stroke:#181818;stroke-width:1;" x1="186.579" x2="192.576" y1="470.386" y2="465.091"/><line style="stroke:#181818;stroke-width:1;" x1="188.5646" x2="194.5616" y1="472.6348" y2="467.3398"/><line style="stroke:#181818;stroke-width:1;" x1="192.225" x2="186.93" y1="470.7369" y2="464.74"/><line style="stroke:#181818;stroke-width:1;" x1="270.8437" x2="280.6368" y1="559.7642" y2="561.7878"/><line style="stroke:#181818;stroke-width:1;" x1="270.8437" x2="271.6432" y1="559.7642" y2="569.7322"/><line style="stroke:#181818;stroke-width:1;" x1="270.8437" x2="276.14" y1="559.7642" y2="565.76"/><ellipse cx="266.8715" cy="555.2674" fill="none" rx="4" ry="4" style="stroke:#181818;stroke-width:1;"/><text fill="#000000" font-family="sans-serif" font-size="13" lengthAdjust="spacing" textLength="22.3755" x="251" y="532.0669">1:N</text></g><!--link COMPETITION to COMPETITION_TEAM--><g class="link" data-entity-1="COMPETITION" data-entity-2="COMPETITION_TEAM" data-source-line="103" data-uid="lnk11" id="link_COMPETITION_COMPETITION_TEAM"><path codeLine="103" d="M608.1566,193.1725 C610.0566,236.9825 611.1643,262.5967 612.8143,300.8467" fill="none" id="COMPETITION-COMPETITION_TEAM" style="stroke:#181818;stroke-width:1;"/><line style="stroke:#181818;stroke-width:1;" x1="603.9871" x2="611.9796" y1="189.3496" y2="189.0029"/><line style="stroke:#181818;stroke-width:1;" x1="604.1171" x2="612.1095" y1="192.3467" y2="192.0001"/><line style="stroke:#181818;stroke-width:1;" x1="608.1566" x2="607.81" y1="193.1725" y2="185.18"/><line style="stroke:#181818;stroke-width:1;" x1="613.2452" x2="619.5844" y1="310.8374" y2="318.5714"/><line style="stroke:#181818;stroke-width:1;" x1="613.2452" x2="607.5956" y1="310.8374" y2="319.0886"/><line style="stroke:#181818;stroke-width:1;" x1="613.2452" x2="613.59" y1="310.8374" y2="318.83"/><ellipse cx="612.9866" cy="304.843" fill="none" rx="4" ry="4" style="stroke:#181818;stroke-width:1;"/><text fill="#000000" font-family="sans-serif" font-size="13" lengthAdjust="spacing" textLength="22.3755" x="610" y="228.0669">1:N</text></g><!--link TEAM to COMPETITION_TEAM--><g class="link" data-entity-1="TEAM" data-entity-2="COMPETITION_TEAM" data-source-line="104" data-uid="lnk12" id="link_TEAM_COMPETITION_TEAM"><path codeLine="104" d="M460.4191,167.1845 C481.4791,183.0545 496.23,196.12 514,215 C543.17,246 560.0652,270.7843 578.4052,303.1943" fill="none" id="TEAM-COMPETITION_TEAM" style="stroke:#181818;stroke-width:1;"/><line style="stroke:#181818;stroke-width:1;" x1="454.8173" x2="459.6318" y1="167.9718" y2="161.5827"/><line style="stroke:#181818;stroke-width:1;" x1="457.2132" x2="462.0277" y1="169.7773" y2="163.3882"/><line style="stroke:#181818;stroke-width:1;" x1="460.4191" x2="454.03" y1="167.1845" y2="162.37"/><line style="stroke:#181818;stroke-width:1;" x1="583.3301" x2="592.4919" y1="311.8975" y2="315.9051"/><line style="stroke:#181818;stroke-width:1;" x1="583.3301" x2="582.0481" y1="311.8975" y2="321.8149"/><line style="stroke:#181818;stroke-width:1;" x1="583.3301" x2="587.27" y1="311.8975" y2="318.86"/><ellipse cx="580.3751" cy="306.6756" fill="none" rx="4" ry="4" style="stroke:#181818;stroke-width:1;"/><text fill="#000000" font-family="sans-serif" font-size="13" lengthAdjust="spacing" textLength="22.3755" x="528" y="228.0669">1:N</text></g><!--link COMPETITION to MATCH--><g class="link" data-entity-1="COMPETITION" data-entity-2="MATCH" data-source-line="107" data-uid="lnk13" id="link_COMPETITION_MATCH"><path codeLine="107" d="M508.6733,190.8556 C499.0233,200.8156 495.01,205.18 486,215 C472.31,229.93 469.9319,232.3085 456.2419,248.2385" fill="none" id="COMPETITION-MATCH" style="stroke:#181818;stroke-width:1;"/><line style="stroke:#181818;stroke-width:1;" x1="508.5839" x2="514.3294" y1="185.1994" y2="190.7661"/><line style="stroke:#181818;stroke-width:1;" x1="506.4963" x2="512.2419" y1="187.354" y2="192.9207"/><line style="stroke:#181818;stroke-width:1;" x1="508.6733" x2="514.24" y1="190.8556" y2="185.11"/><line style="stroke:#181818;stroke-width:1;" x1="449.7242" x2="449.0605" y1="255.8227" y2="265.8006"/><line style="stroke:#181818;stroke-width:1;" x1="449.7242" x2="439.9595" y1="255.8227" y2="257.9794"/><line style="stroke:#181818;stroke-width:1;" x1="449.7242" x2="444.51" y1="255.8227" y2="261.89"/><ellipse cx="453.6348" cy="251.2722" fill="none" rx="4" ry="4" style="stroke:#181818;stroke-width:1;"/><text fill="#000000" font-family="sans-serif" font-size="13" lengthAdjust="spacing" textLength="22.3755" x="487" y="228.0669">1:N</text></g><!--link TEAM to MATCH--><g class="link" data-entity-1="TEAM" data-entity-2="MATCH" data-source-line="108" data-uid="lnk14" id="link_TEAM_MATCH"><path codeLine="108" d="M349.3425,193.2682 C349.1325,203.2982 349.12,205.37 349,215 C348.81,230.09 348.6462,227.9909 348.8062,243.6609" fill="none" id="TEAM-MATCH" style="stroke:#181818;stroke-width:1;"/><line style="stroke:#181818;stroke-width:1;" x1="345.4271" x2="353.4254" y1="189.1854" y2="189.3529"/><line style="stroke:#181818;stroke-width:1;" x1="345.3643" x2="353.3626" y1="192.1847" y2="192.3522"/><line style="stroke:#181818;stroke-width:1;" x1="349.3425" x2="349.51" y1="193.2682" y2="185.27"/><line style="stroke:#181818;stroke-width:1;" x1="348.9083" x2="354.9897" y1="253.6604" y2="261.5987"/><line style="stroke:#181818;stroke-width:1;" x1="348.9083" x2="342.9903" y1="253.6604" y2="261.7213"/><line style="stroke:#181818;stroke-width:1;" x1="348.9083" x2="348.99" y1="253.6604" y2="261.66"/><ellipse cx="348.8471" cy="247.6607" fill="none" rx="4" ry="4" style="stroke:#181818;stroke-width:1;"/><text fill="#000000" font-family="sans-serif" font-size="13" lengthAdjust="spacing" textLength="95.4434" x="350" y="228.0669">home_team_id</text></g><!--link TEAM to MATCH--><g class="link" data-entity-1="TEAM" data-entity-2="MATCH" data-source-line="109" data-uid="lnk15" id="link_TEAM_MATCH"><path codeLine="109" d="M247.5072,192.6149 C240.6372,207.2849 241.67,215.78 247,232 C250.31,242.07 246.3496,236.0377 251.3596,245.7077" fill="none" id="TEAM-MATCH-1" style="stroke:#181818;stroke-width:1;"/><line style="stroke:#181818;stroke-width:1;" x1="245.5811" x2="252.8261" y1="187.2961" y2="190.6889"/><line style="stroke:#181818;stroke-width:1;" x1="244.3088" x2="251.5537" y1="190.0129" y2="193.4057"/><line style="stroke:#181818;stroke-width:1;" x1="247.5072" x2="250.9" y1="192.6149" y2="185.37"/><line style="stroke:#181818;stroke-width:1;" x1="255.9598" x2="264.9674" y1="254.5867" y2="258.9299"/><line style="stroke:#181818;stroke-width:1;" x1="255.9598" x2="254.3126" y1="254.5867" y2="264.4501"/><line style="stroke:#181818;stroke-width:1;" x1="255.9598" x2="259.64" y1="254.5867" y2="261.69"/><ellipse cx="253.1997" cy="249.2593" fill="none" rx="4" ry="4" style="stroke:#181818;stroke-width:1;"/><text fill="#000000" font-family="sans-serif" font-size="13" lengthAdjust="spacing" textLength="92.8472" x="248" y="228.0669">away_team_id</text></g><!--link MATCH to PREDICTION--><g class="link" data-entity-1="MATCH" data-entity-2="PREDICTION" data-source-line="112" data-uid="lnk16" id="link_MATCH_PREDICTION"><path codeLine="112" d="M349.7605,497.2286 C349.2805,522.9086 349.2774,523.6832 348.8274,547.6832" fill="none" id="MATCH-PREDICTION" style="stroke:#181818;stroke-width:1;"/><line style="stroke:#181818;stroke-width:1;" x1="345.8359" x2="353.8345" y1="493.1545" y2="493.3041"/><line style="stroke:#181818;stroke-width:1;" x1="345.7799" x2="353.7785" y1="496.154" y2="496.3035"/><line style="stroke:#181818;stroke-width:1;" x1="349.7605" x2="349.91" y1="497.2286" y2="489.23"/><line style="stroke:#181818;stroke-width:1;" x1="348.64" x2="354.4889" y1="557.6814" y2="565.7925"/><line style="stroke:#181818;stroke-width:1;" x1="348.64" x2="342.4911" y1="557.6814" y2="565.5675"/><line style="stroke:#181818;stroke-width:1;" x1="348.64" x2="348.49" y1="557.6814" y2="565.68"/><ellipse cx="348.7525" cy="551.6825" fill="none" rx="4" ry="4" style="stroke:#181818;stroke-width:1;"/><text fill="#000000" font-family="sans-serif" font-size="13" lengthAdjust="spacing" textLength="22.3755" x="351" y="532.0669">1:N</text></g><!--SRC=[jLJ1QkCm5BpxAqGktT8DR0hf8NGB9j6sfZWDZb9AB-B55iIiRHb9RWXD_xsIxTPA7ATim-fWyCpJqypm99QfM6tGOeu3zEeWT157Q8GM2s-2hgzdzpSt6kltzQUGJ6IGCiq-ki7upWr-37-TQuAb42SMUZaS6ZW7ATTSH7G5SgLfWf-8XWLFJ0iyNVZw3rv0WQ25I9gAK31GBAAW3ERvU4vSVqQUZOOyEaozEOx36YTKuwIoOsJJNKy_qH_BrphE90rvaPcUtfJWMnneEE5IiaF4aab5fT8Y_-xWbeJnWp_3n2FUm_Huff37bRQcJHtnHnOyiWCVr84l4vRkXMPqYitfANwQ8DZrJrIl4h34NvrNidHy_qTwEttQc0XvcZFDnpph6eSBnI0rPBqwH-P4WRvBndV_76sNWLhOYgUCDWRsQLZ3vWXjHBUyI0MgaCrbBO-G8HTiHrZPkWr_Vm2j8Pm5UEADlxv8hLjU-qf1XQj3H2vO58Tbc2-G5DQJjE_wkpxEqE-kfRdM2bW2Hev4HtSwJlbIRxVz_dPhlNKZr1kC1hs6vQzsU2KzxUdjzjjKrxKkp4Tr-LElhseFTgucVQVTFcFFRKU9FRlce8heDFaE]--></g></svg>